{"title":"In The Heart of the Sea 2015 DVDScr XVID AC3 HQ Hive-CM8","uid":13058238,"size":1913672384,"categoryP":"video","categoryS":"movies","magnet":"?xt=urn:btih:28bab4ca3f4b3780f168be4a0b0dff9d144831c3&amp;dn=In+The+Heart+of+the+Sea+2015+DVDScr+XVID+AC3+HQ+Hive-CM8&amp;tr=udp%3A%2F%2Ftracker.leechers-paradise.org%3A6969&amp;tr=udp%3A%2F%2Fzer0day.ch%3A1337&amp;tr=udp%3A%2F%2Fopen.demonii.com%3A1337&amp;tr=udp%3A%2F%2Ftracker.coppersurfer.tk%3A6969&amp;tr=udp%3A%2F%2Fexodus.desync.com%3A6969","seeders":1,"leechers":5,"uploader":"makintos13","files":3,"time":1450682682,"description":"screens:\r\n \nhttp://imgmak.com/Kkg\r\n \nhttp://imgmak.com/Kko\r\n \nhttp://imgmak.com/KkN\r\n \nhttp://imgmak.com/KkQ\r\n \nhttp://imgmak.com/KkS\r\n\r\n:::::;;;;\r\n\r\nThx Hive\r\n\r\nCM8 Doing It Right The First Time\r\n\r\nSource: DVD-Screener Big Thanks M8\r\n\r\nNotes:\r\n\r\nSource: DVD-Screener Big THX m8\r\n\r\nNotes:\r\nDVDScreener 4 of 40\r\nwill do them all one after each other, 4th hot title\r\n\r\nEncode:\r\nquality was perfect on this\r\nAll digital watermarks are removed\r\nFixed brightness,contrast and rgb, and added sharpness\r\n\r\ngot very nice\r\nenjoy\r\n\r\nVideo: 720x400 @bitrate 1800 2pass\r\nAudio: English AC3 2.0 Stereo\r\nSample: yes included \nhttp://www.imdb.com/title/tt1390411/\r\n\r\nComplete Name: In.The.Heart.of.the.Sea.2015.DVDScr.XVID.AC3.HQ.Hive-CM8.avi\r\nFormat: AVI\r\nFormat/Info: Audio Video Interleave\r\nFile size: 1.77 GiB\r\nDuration: 2h 1mn\r\nOverall bit rate: 2 080 Kbps\r\nWriting application: Nandub v1.0rc2\r\nWriting library: Nandub build 1853/release\r\n\r\nVideo\r\nID: 0\r\nFormat: MPEG-4 Visual\r\nFormat profile: Advanced   \r\nFormat settings, BVOP: 2\r\nFormat settings, QPel: Yes\r\nFormat settings, GMC: No warppoints\r\nFormat settings, Matrix: Default (H.263)\r\nMuxing mode: Packed bitstream\r\nCodec ID: XVID\r\nCodec ID/Hint: XviD\r\nDuration: 2h 1mn\r\nBit rate: 1 812 Kbps\r\nWidth: 720 pixels\r\nHeight: 400 pixels\r\nDisplay aspect ratio: 16:9\r\nFrame rate: 29.970 fps\r\nColor space: YUV\r\nChroma subsampling: 4:2:0\r\nBit depth: 8 bits\r\nScan type: Progressive\r\nCompression mode: Lossy\r\nBits/(Pixel*Frame): 0.210\r\nStream size: 1.54 GiB (87%)\r\nWriting library: XviD 1.2.1 (UTC 2008-12-04)\r\n\r\nAudio\r\nID: 1\r\nFormat: AC-3\r\nFormat/Info: Audio Coding 3\r\nMode extension: CM (complete main)\r\nFormat settings, Endianness: Big\r\nCodec ID: 2000\r\nDuration: 2h 1mn\r\nBit rate mode: Constant\r\nBit rate: 256 Kbps\r\nChannel(s): 2 channels\r\nChannel positions: Front: L R\r\nSampling rate: 48.0 KHz\r\nBit depth: 16 bits\r\nCompression mode: Lossy\r\nStream size: 223 MiB (12%)\r\nAlignment: Split accross interleaves\r\nInterleave, duration: 33 ms (1.00 video frame)\r\nInterleave, preload duration: 500 ms","torrent":{"xt":"urn:btih:28bab4ca3f4b3780f168be4a0b0dff9d144831c3","amp;dn":"In+The+Heart+of+the+Sea+2015+DVDScr+XVID+AC3+HQ+Hive-CM8","amp;tr":["udp%3A%2F%2Ftracker.leechers-paradise.org%3A6969","udp%3A%2F%2Fzer0day.ch%3A1337","udp%3A%2F%2Fopen.demonii.com%3A1337","udp%3A%2F%2Ftracker.coppersurfer.tk%3A6969","udp%3A%2F%2Fexodus.desync.com%3A6969"],"infoHash":"28bab4ca3f4b3780f168be4a0b0dff9d144831c3","infoHashBuffer":{"type":"Buffer","data":[40,186,180,202,63,75,55,128,241,104,190,74,11,13,255,157,20,72,49,195]},"announce":[],"urlList":[]}}